<?xml version="1.0" encoding="UTF-8" standalone="no"?>
<!-- Created with Inkscape (http://www.inkscape.org/) -->

<svg
   xmlns:dc="http://purl.org/dc/elements/1.1/"
   xmlns:cc="http://creativecommons.org/ns#"
   xmlns:rdf="http://www.w3.org/1999/02/22-rdf-syntax-ns#"
   xmlns:svg="http://www.w3.org/2000/svg"
   xmlns="http://www.w3.org/2000/svg"
   xmlns:sodipodi="http://sodipodi.sourceforge.net/DTD/sodipodi-0.dtd"
   xmlns:inkscape="http://www.inkscape.org/namespaces/inkscape"
   width="744.09448819"
   height="1052.3622047"
   id="svg2"
   version="1.1"
   inkscape:version="0.48.5 r10040"
   sodipodi:docname="semillas 2.svg">
  <defs
     id="defs4">
    <marker
       inkscape:stockid="Arrow1Mend"
       orient="auto"
       refY="0.0"
       refX="0.0"
       id="Arrow1Mend"
       style="overflow:visible;">
      <path
         id="path4066"
         d="M 0.0,0.0 L 5.0,-5.0 L -12.5,0.0 L 5.0,5.0 L 0.0,0.0 z "
         style="fill-rule:evenodd;stroke:#000000;stroke-width:1.0pt;"
         transform="scale(0.4) rotate(180) translate(10,0)" />
    </marker>
    <marker
       inkscape:stockid="Arrow1Lend"
       orient="auto"
       refY="0.0"
       refX="0.0"
       id="Arrow1Lend"
       style="overflow:visible;">
      <path
         id="path4060"
         d="M 0.0,0.0 L 5.0,-5.0 L -12.5,0.0 L 5.0,5.0 L 0.0,0.0 z "
         style="fill-rule:evenodd;stroke:#000000;stroke-width:1.0pt;"
         transform="scale(0.8) rotate(180) translate(12.5,0)" />
    </marker>
    <marker
       inkscape:stockid="Arrow1Lend"
       orient="auto"
       refY="0"
       refX="0"
       id="Arrow1Lend-8"
       style="overflow:visible">
      <path
         inkscape:connector-curvature="0"
         id="path4060-5"
         d="M 0,0 5,-5 -12.5,0 5,5 0,0 z"
         style="fill-rule:evenodd;stroke:#000000;stroke-width:1pt"
         transform="matrix(-0.8,0,0,-0.8,-10,0)" />
    </marker>
    <marker
       inkscape:stockid="Arrow1Lend"
       orient="auto"
       refY="0"
       refX="0"
       id="Arrow1Lend-7"
       style="overflow:visible">
      <path
         inkscape:connector-curvature="0"
         id="path4060-9"
         d="M 0,0 5,-5 -12.5,0 5,5 0,0 z"
         style="fill-rule:evenodd;stroke:#000000;stroke-width:1pt"
         transform="matrix(-0.8,0,0,-0.8,-10,0)" />
    </marker>
    <marker
       inkscape:stockid="Arrow1Lend"
       orient="auto"
       refY="0"
       refX="0"
       id="marker5348"
       style="overflow:visible">
      <path
         inkscape:connector-curvature="0"
         id="path5350"
         d="M 0,0 5,-5 -12.5,0 5,5 0,0 z"
         style="fill-rule:evenodd;stroke:#000000;stroke-width:1pt"
         transform="matrix(-0.8,0,0,-0.8,-10,0)" />
    </marker>
  </defs>
  <sodipodi:namedview
     id="base"
     pagecolor="#ffffff"
     bordercolor="#666666"
     borderopacity="1.0"
     inkscape:pageopacity="0.0"
     inkscape:pageshadow="2"
     inkscape:zoom="0.70710678"
     inkscape:cx="441.17827"
     inkscape:cy="281.77447"
     inkscape:document-units="px"
     inkscape:current-layer="layer1"
     showgrid="false"
     inkscape:window-width="1152"
     inkscape:window-height="808"
     inkscape:window-x="-4"
     inkscape:window-y="-4"
     inkscape:window-maximized="1"
     showguides="true"
     inkscape:guide-bbox="true" />
  <metadata
     id="metadata7">
    <rdf:RDF>
      <cc:Work
         rdf:about="">
        <dc:format>image/svg+xml</dc:format>
        <dc:type
           rdf:resource="http://purl.org/dc/dcmitype/StillImage" />
        <dc:title></dc:title>
      </cc:Work>
    </rdf:RDF>
  </metadata>
  <g
     inkscape:label="Layer 1"
     inkscape:groupmode="layer"
     id="layer1">
    <g
       id="g6813"
       transform="matrix(-0.70710678,-0.70710678,0.70710678,-0.70710678,-87.529366,1569.9242)">
      <g
         transform="matrix(0,1,-1,0,1112.9727,447.71167)"
         id="g5432">
        <g
           id="g4021"
           transform="matrix(0.70710678,0.70710678,-0.70710678,0.70710678,656.86116,42.65128)">
          <rect
             y="637.53601"
             x="99.810669"
             height="353.82642"
             width="353.82645"
             id="rect2985"
             style="fill:none;stroke:#000000;stroke-width:0.5;stroke-miterlimit:4;stroke-opacity:1;stroke-dasharray:0.5, 3;stroke-dashoffset:0" />
          <path
             sodipodi:nodetypes="cc"
             inkscape:connector-curvature="0"
             id="path3755"
             d="m 276.94751,917.47488 c 0,-4.54218 0.0264,49.39095 0.0264,73.88875"
             style="fill:none;stroke:#000000;stroke-width:0.5;stroke-linecap:butt;stroke-linejoin:miter;stroke-miterlimit:4;stroke-opacity:1;stroke-dasharray:1, 0.5, 0.25, 0.5;stroke-dashoffset:0" />
          <path
             sodipodi:nodetypes="cc"
             inkscape:connector-curvature="0"
             id="path3755-1-7-4-0"
             d="M 99.808526,637.98445 276.78223,711.48126"
             style="fill:none;stroke:#000000;stroke-width:0.5;stroke-linecap:butt;stroke-linejoin:miter;stroke-miterlimit:4;stroke-opacity:1;stroke-dasharray:3, 0.5;stroke-dashoffset:0" />
          <path
             sodipodi:nodetypes="cc"
             inkscape:connector-curvature="0"
             id="path3755-1-7-4-0-9"
             d="M 454.08327,638.30958 276.97388,711.47879"
             style="fill:none;stroke:#000000;stroke-width:0.5;stroke-linecap:butt;stroke-linejoin:miter;stroke-miterlimit:4;stroke-opacity:1;stroke-dasharray:1, 0.5, 0.25, 0.5;stroke-dashoffset:0" />
          <path
             sodipodi:nodetypes="cc"
             inkscape:connector-curvature="0"
             id="path3755-1-7-4-0-4"
             d="M 99.808526,991.36463 173.30534,814.39089"
             style="fill:none;stroke:#000000;stroke-width:0.5;stroke-linecap:butt;stroke-linejoin:miter;stroke-miterlimit:4;stroke-opacity:1;stroke-dasharray:1, 0.5, 0.25, 0.5;stroke-dashoffset:0" />
          <path
             sodipodi:nodetypes="cc"
             inkscape:connector-curvature="0"
             id="path3755-1-7-4-0-9-8"
             d="m 100.13366,637.08985 73.16921,177.10939"
             style="fill:none;stroke:#000000;stroke-width:0.5;stroke-linecap:butt;stroke-linejoin:miter;stroke-miterlimit:4;stroke-opacity:1;stroke-dasharray:3, 0.5;stroke-dashoffset:0" />
          <path
             sodipodi:nodetypes="cc"
             inkscape:connector-curvature="0"
             id="path3755-1-7-4-0-4-8"
             d="M 454.08334,991.36463 277.10957,917.8678"
             style="fill:none;stroke:#000000;stroke-width:0.5;stroke-linecap:butt;stroke-linejoin:miter;stroke-miterlimit:4;stroke-opacity:1;stroke-dasharray:3, 0.5;stroke-dashoffset:0" />
          <path
             sodipodi:nodetypes="cc"
             inkscape:connector-curvature="0"
             id="path3755-1-7-4-0-9-8-2"
             d="M 99.808526,991.03953 276.91792,917.87027"
             style="fill:none;stroke:#000000;stroke-width:0.5;stroke-linecap:butt;stroke-linejoin:miter;stroke-miterlimit:4;stroke-opacity:1;stroke-dasharray:1, 0.5, 0.25, 0.5;stroke-dashoffset:0" />
          <path
             sodipodi:nodetypes="cc"
             inkscape:connector-curvature="0"
             id="path3755-1-7-4-0-4-8-4"
             d="M 453.19121,637.08978 379.69436,814.06351"
             style="fill:none;stroke:#000000;stroke-width:0.5;stroke-linecap:butt;stroke-linejoin:miter;stroke-miterlimit:4;stroke-opacity:1;stroke-dasharray:1, 0.5, 0.25, 0.5;stroke-dashoffset:0" />
          <path
             sodipodi:nodetypes="cc"
             inkscape:connector-curvature="0"
             id="path3755-1-7-4-0-9-8-2-5"
             d="M 452.86611,991.36463 379.69683,814.25521"
             style="fill:none;stroke:#000000;stroke-width:0.5;stroke-linecap:butt;stroke-linejoin:miter;stroke-miterlimit:4;stroke-opacity:1;stroke-dasharray:3, 0.5;stroke-dashoffset:0" />
          <path
             sodipodi:nodetypes="cc"
             inkscape:connector-curvature="0"
             id="path3755-11"
             d="m 276.97388,637.64442 c 0,-4.54218 0.0264,49.39094 0.0264,73.88874"
             style="fill:none;stroke:#000000;stroke-width:0.5;stroke-linecap:butt;stroke-linejoin:miter;stroke-miterlimit:4;stroke-opacity:1;stroke-dasharray:1, 0.5, 0.25, 0.5;stroke-dashoffset:0" />
          <path
             sodipodi:nodetypes="cc"
             inkscape:connector-curvature="0"
             id="path3755-5"
             d="m 173.89444,814.3436 c 4.5422,0 -49.39102,0.0264 -73.88882,0.0264"
             style="fill:none;stroke:#000000;stroke-width:0.5;stroke-linecap:butt;stroke-linejoin:miter;stroke-miterlimit:4;stroke-opacity:1;stroke-dasharray:1, 0.5, 0.25, 0.5;stroke-dashoffset:0" />
          <path
             sodipodi:nodetypes="cc"
             inkscape:connector-curvature="0"
             id="path3755-11-2"
             d="m 453.7249,814.36997 c 4.54218,0 -49.39094,0.0264 -73.88874,0.0264"
             style="fill:none;stroke:#000000;stroke-width:0.5;stroke-linecap:butt;stroke-linejoin:miter;stroke-miterlimit:4;stroke-opacity:1;stroke-dasharray:1, 0.5, 0.25, 0.5;stroke-dashoffset:0" />
          <rect
             transform="matrix(0.70710677,0.70710679,-0.70710677,0.70710679,0,0)"
             y="307.53021"
             x="699.41998"
             height="145.02896"
             width="145.02896"
             id="rect2985-7"
             style="fill:none;stroke:#000000;stroke-width:0.5;stroke-miterlimit:4;stroke-opacity:1;stroke-dasharray:1, 0.5, 0.25, 0.5;stroke-dashoffset:0" />
        </g>
        <path
           style="fill:none;stroke:#000000;stroke-width:1px;stroke-linecap:butt;stroke-linejoin:miter;stroke-opacity:1;marker-end:url(#Arrow1Lend)"
           d="m 197.42962,682.81444 c 14.74233,-26.7138 48.09184,19.40547 48.09184,19.40547"
           id="path4051"
           inkscape:connector-curvature="0"
           sodipodi:nodetypes="cc" />
        <text
           xml:space="preserve"
           style="font-size:32px;font-style:normal;font-weight:bold;line-height:116.99999571%;letter-spacing:0px;word-spacing:0px;fill:#000000;fill-opacity:1;stroke:none;font-family:Sans;-inkscape-font-specification:Sans Bold"
           x="612.01642"
           y="374.45343"
           id="text5235"
           sodipodi:linespacing="117%"
           transform="matrix(0.70710678,0.70710678,-0.70710678,0.70710678,0,0)"><tspan
             sodipodi:role="line"
             id="tspan5237"
             x="612.01642"
             y="374.45343">1</tspan></text>
        <text
           xml:space="preserve"
           style="font-size:32px;font-style:normal;font-weight:bold;line-height:116.99999571%;letter-spacing:0px;word-spacing:0px;fill:#000000;fill-opacity:1;stroke:none;font-family:Sans;-inkscape-font-specification:Sans Bold"
           x="233.36023"
           y="734.0661"
           id="text5235-6"
           sodipodi:linespacing="117%"><tspan
             sodipodi:role="line"
             id="tspan5237-1"
             x="233.36023"
             y="734.0661">1</tspan></text>
        <path
           style="fill:none;stroke:#000000;stroke-width:1px;stroke-linecap:butt;stroke-linejoin:miter;stroke-opacity:1;marker-end:url(#Arrow1Lend)"
           d="m 351.439,686.49087 c -14.74233,-26.7138 -48.09184,19.40547 -48.09184,19.40547"
           id="path4051-7"
           inkscape:connector-curvature="0"
           sodipodi:nodetypes="cc" />
        <text
           xml:space="preserve"
           style="font-size:32px;font-style:normal;font-weight:bold;line-height:116.99999571%;letter-spacing:0px;word-spacing:0px;fill:#000000;fill-opacity:1;stroke:none;font-family:Sans;-inkscape-font-specification:Sans Bold"
           x="-246.56226"
           y="759.43628"
           id="text5235-61"
           sodipodi:linespacing="117%"
           transform="matrix(0.70710678,-0.70710678,0.70710678,0.70710678,0,0)"><tspan
             sodipodi:role="line"
             id="tspan5237-8"
             x="-246.56226"
             y="759.43628">2</tspan></text>
        <text
           xml:space="preserve"
           style="font-size:32px;font-style:normal;font-weight:bold;line-height:116.99999571%;letter-spacing:0px;word-spacing:0px;fill:#000000;fill-opacity:1;stroke:none;font-family:Sans;-inkscape-font-specification:Sans Bold"
           x="293.71713"
           y="734.0661"
           id="text5235-6-9"
           sodipodi:linespacing="117%"><tspan
             sodipodi:role="line"
             x="293.71713"
             y="734.0661"
             id="tspan5332">2</tspan></text>
        <path
           style="fill:none;stroke:#000000;stroke-width:1px;stroke-linecap:butt;stroke-linejoin:miter;stroke-opacity:1;marker-end:url(#Arrow1Lend)"
           d="M 352.24134,950.39279 C 337.49901,977.10659 304.1495,930.98732 304.1495,930.98732"
           id="path4051-5"
           inkscape:connector-curvature="0"
           sodipodi:nodetypes="cc" />
        <text
           xml:space="preserve"
           style="font-size:32px;font-style:normal;font-weight:bold;line-height:116.99999571%;letter-spacing:0px;word-spacing:0px;fill:#000000;fill-opacity:1;stroke:none;font-family:Sans;-inkscape-font-specification:Sans Bold"
           x="-931.51154"
           y="-391.72241"
           id="text5235-4"
           sodipodi:linespacing="117%"
           transform="matrix(-0.70710678,-0.70710678,0.70710678,-0.70710678,0,0)"><tspan
             sodipodi:role="line"
             id="tspan5237-3"
             x="-931.51154"
             y="-391.72241">2</tspan></text>
        <text
           xml:space="preserve"
           style="font-size:32px;font-style:normal;font-weight:bold;line-height:116.99999571%;letter-spacing:0px;word-spacing:0px;fill:#000000;fill-opacity:1;stroke:none;font-family:Sans;-inkscape-font-specification:Sans Bold"
           x="-316.31073"
           y="-899.14111"
           id="text5235-6-1"
           sodipodi:linespacing="117%"
           transform="scale(-1,-1)"><tspan
             sodipodi:role="line"
             id="tspan5237-1-2"
             x="-316.31073"
             y="-899.14111">2</tspan></text>
        <path
           style="fill:none;stroke:#000000;stroke-width:1px;stroke-linecap:butt;stroke-linejoin:miter;stroke-opacity:1;marker-end:url(#Arrow1Lend)"
           d="m 198.23196,946.71636 c 14.74233,26.7138 48.09184,-19.40547 48.09184,-19.40547"
           id="path4051-7-3"
           inkscape:connector-curvature="0"
           sodipodi:nodetypes="cc" />
        <text
           xml:space="preserve"
           style="font-size:32px;font-style:normal;font-weight:bold;line-height:116.99999571%;letter-spacing:0px;word-spacing:0px;fill:#000000;fill-opacity:1;stroke:none;font-family:Sans;-inkscape-font-specification:Sans Bold"
           x="519.61359"
           y="-784.09167"
           id="text5235-61-3"
           sodipodi:linespacing="117%"
           transform="matrix(-0.70710678,0.70710678,-0.70710678,-0.70710678,0,0)"><tspan
             sodipodi:role="line"
             id="tspan5237-8-4"
             x="519.61359"
             y="-784.09167">1</tspan></text>
        <text
           xml:space="preserve"
           style="font-size:32px;font-style:normal;font-weight:bold;line-height:116.99999571%;letter-spacing:0px;word-spacing:0px;fill:#000000;fill-opacity:1;stroke:none;font-family:Sans;-inkscape-font-specification:Sans Bold"
           x="-255.95381"
           y="-899.14111"
           id="text5235-6-9-1"
           sodipodi:linespacing="117%"
           transform="scale(-1,-1)"><tspan
             sodipodi:role="line"
             x="-255.95381"
             y="-899.14111"
             id="tspan5332-1">1</tspan></text>
      </g>
      <g
         transform="matrix(-0.04317007,-0.04317007,0.04317007,-0.04317007,386.34178,866.99397)"
         id="g5470">
	<g
   id="g5472">
		<g
   id="g5474">
			<g
   id="g5476">
				<path
   inkscape:connector-curvature="0"
   d="m 99.777,446.086 c -6.699,12.031 -12.031,30.133 -12.031,41.539 0,2.648 0,6.016 0.656,10.688 L 4.676,354.32 C 1.996,349.648 0,342.945 0,336.906 0,330.859 1.996,323.508 4.676,318.828 L 44.871,248.5 0,223.07 146.016,220.367 217,348.281 171.473,322.164 99.777,446.086 z M 164.09,40.227 c 12.715,-22.125 33.496,-34.18 58.926,-34.18 27.48,0 48.918,12.742 64.312,38.828 L 310.105,83.047 231.054,219.711 103.14,145.359 164.09,40.227 z m 9.351,521.718 c -38.172,0 -69.645,-31.477 -69.645,-69.648 0,-10.719 4.703,-28.82 11.402,-40.195 l 21.41,-38.172 H 295.366 V 561.946 H 173.441 z M 300.727,36.18 C 290.691,18.789 277.293,6.703 261.215,0 h 164.746 c 14.738,0 26.113,6.047 32.84,17.445 l 40.852,69.648 44.191,-26.141 -71.016,127.281 -145.305,-2.047 44.871,-25.43 L 300.727,36.18 z M 554.59,415.273 c 20.07,0 36.832,-5.359 50.887,-16.055 l -83.07,144.648 c -6.699,11.375 -18.73,18.078 -32.789,18.078 h -78.395 v 51.57 L 336.219,488.28 411.223,363.014 v 52.258 H 554.59 z m 64.258,-120.562 c 6.043,10.719 9.406,22.094 9.406,34.156 0,24.117 -15.422,49.57 -36.832,61.602 -10.062,5.391 -24.145,8.75 -38.172,8.75 h -44.242 l -79,-136.664 127.918,-73.008 60.922,105.164 z"
   id="path5478" />

			</g>

		</g>

	</g>

</g>
      <g
         inkscape:label="Layer 1"
         id="layer1-9"
         transform="matrix(0.76523257,0,0,0.76523257,261.00064,513.64233)">
        <g
           id="g3031">
          <g
             id="g3019">
            <path
               inkscape:connector-curvature="0"
               id="path3024"
               style="font-size:42px;font-style:normal;font-weight:bold;line-height:137.99999952%;letter-spacing:1.37000012px;word-spacing:0px;fill:#000000;fill-opacity:1;stroke:none;font-family:Ostrich Sans Medium;-inkscape-font-specification:Ostrich Sans Medium"
               d="m 0.3543292,78.807992 0,45.979668 16.5090208,0 0,-2.11479 -14.3942292,0 0,-19.85176 12.3476562,0 0,-2.11479 -12.3476562,0 0,-19.783537 14.3942292,0 0,-2.114791 z" />
            <path
               inkscape:connector-curvature="0"
               id="path3026"
               style="font-size:42px;font-style:normal;font-weight:bold;line-height:137.99999952%;letter-spacing:1.37000012px;word-spacing:0px;fill:#000000;fill-opacity:1;stroke:none;font-family:Ostrich Sans Medium;-inkscape-font-specification:Ostrich Sans Medium"
               d="m 44.333422,122.67287 -14.053136,0 0,-43.864878 -2.183007,0 0,45.979668 16.236143,0 z" />
            <path
               inkscape:connector-curvature="0"
               id="path3028"
               style="font-size:42px;font-style:normal;font-weight:bold;line-height:137.99999952%;letter-spacing:1.37000012px;word-spacing:0px;fill:#000000;fill-opacity:1;stroke:none;font-family:Ostrich Sans Medium;-inkscape-font-specification:Ostrich Sans Medium"
               d="m 52.00821,112.57644 c 0,8.10671 3.27451,12.15437 9.823546,12.143 3.187806,-0.008 5.62948,-0.89537 7.325023,-2.66054 1.69551,-1.76517 2.551102,-4.35749 2.56676,-7.77698 -0.217313,-3.82068 -1.738342,-6.91243 -4.563104,-9.27527 -2.824794,-2.3628 -5.649572,-4.67635 -8.474334,-6.940661 -2.824778,-2.264256 -4.345807,-5.158931 -4.563104,-8.684038 0.01462,-2.949016 0.685042,-5.100758 2.012473,-6.455234 1.327414,-1.354389 3.226187,-2.022366 5.696286,-2.003934 2.589484,-0.01267 4.522351,0.797357 5.798633,2.430308 1.27625,1.633033 1.912953,4.165664 1.910127,7.5979 l 0,1.091505 2.183023,0 0,-1.091505 c -0.0065,-3.970881 -0.845652,-6.995258 -2.515579,-9.073139 -1.669976,-2.077797 -4.128705,-3.123822 -7.376204,-3.138079 -3.155141,0.02136 -5.576918,0.967904 -7.265329,2.839621 -1.688428,1.871803 -2.541162,4.540873 -2.558217,8.007216 0.216452,3.854829 1.731585,7.007222 4.545416,9.457185 2.813814,2.450015 5.627644,4.809045 8.441474,7.077095 2.813814,2.2681 4.328948,5.05665 4.545416,8.36569 -0.01462,2.99454 -0.685042,5.10649 -2.012457,6.33585 -1.327447,1.22937 -3.226204,1.82344 -5.696303,1.78222 -0.832852,0.0171 -1.69127,-0.0853 -2.575271,-0.30699 -0.884001,-0.22171 -1.708326,-0.66513 -2.472942,-1.33027 -0.767458,-0.66086 -1.398493,-1.65857 -1.893072,-2.99311 -0.494594,-1.33453 -0.750419,-3.1338 -0.767474,-5.39784 l 0,-1.02328 -2.114787,0 z" />
            <path
               inkscape:connector-curvature="0"
               id="path3030"
               style="font-size:42px;font-style:normal;font-weight:bold;line-height:137.99999952%;letter-spacing:1.37000012px;word-spacing:0px;fill:#000000;fill-opacity:1;stroke:none;font-family:Ostrich Sans Medium;-inkscape-font-specification:Ostrich Sans Medium"
               d="m 97.8817,124.78766 2.18301,0 -10.505733,-45.979668 -1.705483,0 -6.958356,29.811748 0,0.20465 -3.61561,15.96327 2.183023,0 3.13807,-14.05313 12.142993,0 z m -9.209582,-40.181045 5.593973,24.013125 -11.11971,0 z" />
          </g>
          <g
             id="g3025">
            <path
               inkscape:connector-curvature="0"
               id="path3032"
               style="font-size:40px;font-style:normal;font-weight:bold;line-height:79.00000215%;letter-spacing:0px;word-spacing:0px;fill:#000000;fill-opacity:1;stroke:none;font-family:Ostrich Sans Black;-inkscape-font-specification:Ostrich Sans Black"
               d="m 0.3543292,175.12204 0,-47.8833 9.2258208,0 c 4.093132,0.0109 7.081776,1.22366 8.965935,3.63835 0.940705,1.07476 1.641844,2.43373 2.103417,4.0769 0.461541,1.64326 0.691653,3.55447 0.690321,5.73366 0.0013,2.17383 -0.228764,4.07964 -0.690321,5.71741 -0.461573,1.63782 -1.162712,3.02386 -2.103417,4.15811 -0.07569,0.12991 -0.249003,0.3248 -0.519713,0.58467 0.270694,0.24908 0.443957,0.46565 0.519762,0.64971 0.940688,1.13433 1.641811,2.52038 2.103384,4.15817 0.461541,1.63783 0.691637,3.54363 0.690305,5.71742 0.0013,2.17924 -0.228764,4.09045 -0.690321,5.73364 -0.461573,1.64323 -1.162712,3.0022 -2.103417,4.07691 -1.949131,2.41474 -4.937773,3.62753 -8.965935,3.63835 z m 6.107234,-41.77607 0,14.74832 3.1185868,0 c 0.684888,-0.001 1.28045,-0.0473 1.786689,-0.13806 0.506218,-0.0907 0.906869,-0.2179 1.201957,-0.3817 0.295061,-0.15969 0.549529,-0.31129 0.763404,-0.4548 0.21385,-0.14346 0.370861,-0.29505 0.471036,-0.45479 0.45478,-0.54952 0.795875,-1.31833 1.023287,-2.30646 0.227382,-0.98806 0.341082,-2.21167 0.341096,-3.67083 -0.0041,-1.67296 -0.142141,-3.00486 -0.414188,-3.9957 -0.272079,-0.99076 -0.653781,-1.73792 -1.145106,-2.24148 -0.525191,-0.47235 -1.131583,-0.77825 -1.819177,-0.91771 -0.687615,-0.13938 -1.423947,-0.20164 -2.208998,-0.18679 z m 0,20.85555 0,14.81329 3.1185868,0 c 0.785051,0.0162 1.521385,-0.0487 2.208998,-0.19491 0.687593,-0.14619 1.293984,-0.47103 1.819177,-0.97456 0.491325,-0.47237 0.873027,-1.20059 1.145105,-2.18463 0.272048,-0.98402 0.410112,-2.31321 0.414189,-3.98757 -0.0068,-1.70682 -0.155671,-3.06849 -0.446673,-4.08503 -0.291028,-1.0165 -0.683558,-1.77719 -1.177591,-2.28209 -0.522485,-0.47237 -1.118047,-0.77827 -1.786692,-0.91771 -0.668666,-0.13939 -1.394171,-0.20165 -2.176513,-0.18679 z" />
            <path
               inkscape:connector-curvature="0"
               id="path3034"
               style="font-size:40px;font-style:normal;font-weight:bold;line-height:79.00000215%;letter-spacing:0px;word-spacing:0px;fill:#000000;fill-opacity:1;stroke:none;font-family:Ostrich Sans Black;-inkscape-font-specification:Ostrich Sans Black"
               d="m 24.845501,140.81759 c 0,-4.23388 0.909584,-7.52572 2.728767,-9.87553 0.353266,-0.42632 0.783701,-0.85675 1.29129,-1.29129 0.507573,-0.43444 1.11668,-0.84863 1.827288,-1.24256 0.709261,-0.36406 1.515978,-0.65914 2.420153,-0.88523 0.904174,-0.22599 1.938292,-0.3424 3.102352,-0.34921 2.321331,0.0474 4.175696,0.45619 5.563111,1.22632 1.387367,0.77022 2.413363,1.61754 3.077972,2.54197 1.81915,2.34981 2.72875,5.64165 2.728766,9.87553 l 0,20.59567 c -1.6e-5,4.23392 -0.909616,7.52576 -2.728766,9.87552 -0.664609,0.92448 -1.690605,1.7718 -3.077972,2.54197 -1.387415,0.77017 -3.24178,1.17896 -5.563111,1.22632 -2.292922,-0.0474 -4.139182,-0.45613 -5.538747,-1.22632 -1.399566,-0.77017 -2.433683,-1.61749 -3.102336,-2.54197 -1.819183,-2.34976 -2.728767,-5.6416 -2.728767,-9.87552 z m 6.107231,20.59567 c 0.01299,1.89363 0.198975,3.35276 0.560378,4.37739 0.361388,1.02465 0.824309,1.75285 1.388748,2.18463 0.560362,0.43856 1.128862,0.71467 1.705499,0.82836 0.576605,0.1137 1.112619,0.16243 1.608026,0.14618 0.438541,0.0163 0.958312,-0.0325 1.559298,-0.14618 0.600969,-0.1137 1.185695,-0.38982 1.754211,-0.82837 0.564391,-0.43177 1.027296,-1.15999 1.388716,-2.18462 0.36137,-1.02463 0.548163,-2.48376 0.560362,-4.37739 l 0,-20.59567 c -0.01299,-1.83674 -0.198992,-3.27963 -0.560379,-4.32867 -0.361403,-1.04896 -0.824324,-1.79342 -1.388747,-2.23336 -0.568484,-0.43586 -1.15321,-0.70119 -1.754163,-0.79599 -0.600986,-0.0947 -1.120757,-0.13262 -1.559298,-0.11372 -0.495407,-0.0189 -1.031421,0.019 -1.608026,0.1137 -0.576621,0.0948 -1.145121,0.36009 -1.705483,0.7959 -0.564455,0.43999 -1.027376,1.18448 -1.388764,2.23346 -0.361403,1.04905 -0.548196,2.49194 -0.560378,4.32867 z" />
            <path
               inkscape:connector-curvature="0"
               id="path3036"
               style="font-size:40px;font-style:normal;font-weight:bold;line-height:79.00000215%;letter-spacing:0px;word-spacing:0px;fill:#000000;fill-opacity:1;stroke:none;font-family:Ostrich Sans Black;-inkscape-font-specification:Ostrich Sans Black"
               d="m 66.446285,148.09429 0,-20.85555 6.172219,0 0,47.8833 -6.172219,0 0,-20.85555 -9.225809,0 0,20.85555 -6.107231,0 0,-47.8833 6.107231,0 0,20.85555 z" />
            <path
               inkscape:connector-curvature="0"
               id="path3038"
               style="font-size:40px;font-style:normal;font-weight:bold;line-height:79.00000215%;letter-spacing:0px;word-spacing:0px;fill:#000000;fill-opacity:1;stroke:none;font-family:Ostrich Sans Black;-inkscape-font-specification:Ostrich Sans Black"
               d="m 99.854695,175.05707 -6.172202,0 0,-14.16358 c 0.01137,-4.21224 -2.024915,-6.31295 -6.107231,-6.30214 l -3.833264,0 0,20.46572 -6.107231,0 0,-47.8833 9.940495,0 c 4.11615,0.0122 7.172469,1.17358 9.168976,3.48405 1.996473,2.31055 2.989967,5.69714 2.98053,10.15977 -0.01137,4.42886 -0.963753,7.78566 -2.858709,10.07043 -0.03525,0.0339 -0.07845,0.0799 -0.129943,0.13807 -0.05149,0.0582 -0.0947,0.12049 -0.129943,0.18679 -0.129942,0.14079 -0.259901,0.24908 -0.389828,0.32485 1.174878,1.13701 2.073627,2.48515 2.696281,4.04442 0.622621,1.55931 0.936644,3.32976 0.942069,5.31134 z m -16.112697,-26.63793 3.833264,0 c 1.635087,3e-5 2.782904,-0.19488 3.443436,-0.58473 0.584726,-0.40062 0.974554,-0.70382 1.169485,-0.90959 0.963705,-1.22358 1.440156,-3.25933 1.429338,-6.10723 -0.0014,-1.58092 -0.128643,-2.8695 -0.38169,-3.86575 -0.253129,-0.99618 -0.624002,-1.765 -1.112619,-2.30646 -0.51844,-0.50889 -1.154607,-0.8554 -1.908519,-1.03953 -0.753945,-0.18404 -1.633755,-0.27067 -2.639431,-0.25988 l -3.833264,0 z" />
          </g>
        </g>
      </g>
    </g>
  </g>
</svg>
