<?xml version="1.0" encoding="UTF-8" standalone="no"?>
<!-- Created with Inkscape (http://www.inkscape.org/) -->

<svg
   xmlns:dc="http://purl.org/dc/elements/1.1/"
   xmlns:cc="http://creativecommons.org/ns#"
   xmlns:rdf="http://www.w3.org/1999/02/22-rdf-syntax-ns#"
   xmlns:svg="http://www.w3.org/2000/svg"
   xmlns="http://www.w3.org/2000/svg"
   xmlns:sodipodi="http://sodipodi.sourceforge.net/DTD/sodipodi-0.dtd"
   xmlns:inkscape="http://www.inkscape.org/namespaces/inkscape"
   width="640"
   height="260"
   id="svg3972"
   version="1.1"
   inkscape:version="0.48.4 r9939"
   sodipodi:docname="logo-orange.svg"
   inkscape:export-filename="/home/facutk/logo.png"
   inkscape:export-xdpi="90"
   inkscape:export-ydpi="90">
  <defs
     id="defs3974" />
  <sodipodi:namedview
     id="base"
     pagecolor="#ffffff"
     bordercolor="#666666"
     borderopacity="1.0"
     inkscape:pageopacity="0.0"
     inkscape:pageshadow="2"
     inkscape:zoom="0.75"
     inkscape:cx="226.90155"
     inkscape:cy="66.830432"
     inkscape:document-units="px"
     inkscape:current-layer="layer1"
     showgrid="false"
     fit-margin-top="0"
     fit-margin-left="0"
     fit-margin-right="0"
     fit-margin-bottom="0"
     inkscape:window-width="1024"
     inkscape:window-height="576"
     inkscape:window-x="0"
     inkscape:window-y="24"
     inkscape:window-maximized="1" />
  <metadata
     id="metadata3977">
    <rdf:RDF>
      <cc:Work
         rdf:about="">
        <dc:format>image/svg+xml</dc:format>
        <dc:type
           rdf:resource="http://purl.org/dc/dcmitype/StillImage" />
        <dc:title />
      </cc:Work>
    </rdf:RDF>
  </metadata>
  <g
     id="layer1"
     inkscape:label="Layer 1"
     inkscape:groupmode="layer"
     transform="translate(-9.4002007,148.16955)">
    <path
       style="fill:#ffffff"
       inkscape:connector-curvature="0"
       d="M 92.852169,70.679028 C 85.496627,67.427682 79.428103,62.240365 73.701221,56.92897 50.609777,66.807188 29.803863,81.252228 12.912144,99.122384 56.520685,111.97899 102.86109,110.44016 147.99317,110.11751 c -0.55143,-7.6445 1.73388,-17.07589 -4.0193,-23.206346 -15.89341,-8.190505 -35.04436,-8.289788 -51.121701,-16.232136 z"
       id="path3063-8" />
    <path
       style="fill:#ffa500;fill-opacity:1"
       inkscape:connector-curvature="0"
       d="m 76.18213,-122.31055 c 4.3875,-15.35625 21.66327,-22.10625 36.36558,-20.94615 13.96413,-0.3798 28.41327,7.34067 33.03288,21.07269 9.13356,-3.43827 20.22894,-3.24846 28.05462,3.14298 6.9399,5.80077 11.55942,15.98904 7.65711,24.78519 -2.025,8.14212 -9.93519,12.25539 -14.63904,18.5625 -3.69144,11.6226 -5.61096,24.02577 -4.28211,36.19683 3.96567,18.9 3.375,38.26413 3.7125,57.45942 0.5067,15.31404 7.06644,29.34135 13.90077,42.73587 -10.88433,-6.15933 -21.55779,-12.825 -33.39135,-17.06481 -2.84769,2.55231 -5.69538,5.10471 -8.64846,7.55154 -1.07577,-3.12183 -2.08827,-6.26481 -3.12192,-9.38673 -7.36173,5.14692 -14.91318,12.08673 -24.51087,11.58048 -9.19692,0.4005 -16.24221,-6.45462 -23.30856,-11.32731 -1.26567,3.16404 -2.57355,6.30702 -3.92346,9.42894 -2.91096,-2.59461 -5.75865,-5.2524 -8.56413,-7.93125 -11.72808,5.23125 -23.392976,10.75779 -34.003076,18.0351 8.01567,-13.28904 12.86721,-28.32885 15.10317,-43.64298 0.6327,-15.3351 -0.1053,-30.73356 1.35,-46.0476 0.7596,-7.15086 3.50154,-14.13279 2.76318,-21.41019 -0.8019,-8.35317 -2.025,-16.72731 -4.36635,-24.82731 -3.31173,-5.7375 -9.87183,-8.83836 -13.0149,-14.78682 -6.77106,-10.63125 -2.78433,-26.59914 8.775,-32.08356 7.55163,-4.68279 16.938356,-3.43827 25.059416,-1.09683 z"
       id="path3053" />
    <path
       style="fill:#ffffff"
       inkscape:connector-curvature="0"
       d="m 92.61415,-130.41055 c 12.19221,-7.99461 31.59846,-7.2774 40.98519,4.83039 3.79683,4.9149 3.10077,11.43288 4.17654,17.2125 5.9274,0.2322 8.85933,-5.14683 13.56327,-7.61481 7.425,-1.26558 16.74846,-0.5697 20.69298,6.87663 7.67808,12.36087 -6.03279,28.4976 -19.34298,26.78904 -3.58587,-0.5274 -6.68673,1.22346 -9.45,3.24846 3.73356,3.7125 9.02817,4.26087 13.92192,5.31558 -1.91961,9.89298 -3.92346,19.80702 -3.86019,29.91096 -23.75154,3.77577 -48.0726,4.78827 -71.97192,1.79298 -4.3875,-0.8019 -10.54683,0.675 -13.43664,-3.39606 -0.1899,-9.68211 -1.51875,-19.23759 -3.43836,-28.70865 3.81807,-0.6543 7.65711,-1.26567 11.49615,-1.87731 -0.1269,-2.06721 -0.2322,-4.15557 -0.3582,-6.22269 -6.75,0.063 -14.090576,0.7596 -19.701536,-3.79692 -9.1125,-5.33664 -11.74923,-20.22885 -2.78442,-26.89452 3.67038,-4.28202 9.682106,-3.41712 14.702396,-3.26952 4.95702,-0.2529 7.46721,4.78827 10.77885,7.6149 1.30788,-0.126 3.96567,-0.3582 5.27346,-0.4851 0.4014,-7.78356 1.26567,-16.95933 8.75394,-21.32577 z"
       id="path3055" />
    <path
       style="fill:#ffffff"
       inkscape:connector-curvature="0"
       d="m 119.84617,-24.92074 c 4.89375,-2.44683 9.09135,-6.83433 14.78673,-7.25625 2.99538,5.12586 4.40856,10.96875 6.83442,16.34769 2.25702,-2.025 4.3875,-4.17654 6.77106,-6.05394 5.29452,1.22346 2.91096,8.41644 3.62808,12.44529 0.97038,8.83836 -4.3875,15.92586 -8.4375,23.1399 -3.88125,13.85856 -14.63904,25.22808 -27.73818,30.83904 -10.48365,2.84769 -19.55394,-4.89375 -26.6625,-11.51721 -8.75394,-8.16327 -12.10788,-20.25 -13.09932,-31.80933 -0.2115,-2.99529 1.30788,-5.80077 2.80548,-8.2899 12.42423,-8.5851 28.13913,-10.23039 41.11173,-17.84529 z"
       id="path3057" />
    <path
       style="fill:#ffa500;fill-opacity:1"
       inkscape:connector-curvature="0"
       d="m 10.791464,96.62147 c 15.16644,-21.53673 37.8,-36.99846 61.762496,-47.33433 6.81336,8.41635 16.70625,12.93039 25.29144,19.11087 C 87.08761,74.2832 77.84857,65.40272 70.46578,58.50503 52.388384,67.32224 35.639924,79.13474 22.118864,94.11128 c 17.95077,6.37038 37.125,7.48836 55.919516,9.38673 -0.018,2.29923 -0.018,4.5774 0,6.87663 -16.748456,-0.018 -33.391346,-2.2149 -49.654706,-6.075 -6.30702,-1.39221 -12.15,-4.2399 -17.59221,-7.67817 z"
       id="path3059" />
    <path
       style="fill:#ffa500;fill-opacity:1"
       inkscape:connector-curvature="0"
       d="m 125.1829,65.88791 c 9.23904,-2.91096 16.76952,-9.40788 23.18202,-16.45317 24.93279,9.23904 46.04769,26.6625 62.90154,46.95471 -21.34683,12.97269 -47.31327,12.23433 -71.29683,15.10308 -18.9,0.4851 -37.82115,0.4005 -56.72115,0.045 -1.32885,-9.66087 -1.28664,-19.59606 1.22355,-29.04606 1.6452,-2.88981 4.02885,-5.50548 7.0875,-6.91875 10.67337,-4.89375 22.48587,-6.20154 33.62337,-9.68202 z"
       id="path3061" />
    <path
       style="fill:#ffffff"
       inkscape:connector-curvature="0"
       d="m 134.99146,70.10666 c 5.90625,-2.76327 10.77894,-7.17192 15.3774,-11.68596 18.54135,8.39529 35.2476,20.67183 48.81087,35.85933 -35.01558,10.92663 -72.22491,9.61875 -108.46395,9.34461 0.4428,-6.49692 -1.39221,-14.5125 3.22731,-19.72269 12.76173,-6.96096 28.13904,-7.04529 41.04837,-13.79529 z"
       id="path3063" />
    <path
       style="fill:#ffa500;fill-opacity:1"
       inkscape:connector-curvature="0"
       d="m 96.22117,88.47926 c 3.07971,-0.1053 6.13827,-0.1269 9.21798,-0.1269 0,3.05865 -0.045,6.13827 -0.1062,9.19692 -3.01644,0 -5.99058,-0.063 -8.98587,-0.2106 -0.1269,-2.95317 -0.1692,-5.90625 -0.1269,-8.85942 z"
       id="path3065" />
    <path
       style="fill:#ffa500;fill-opacity:1"
       inkscape:connector-curvature="0"
       d="m 115.75396,88.60589 c 3.69144,0.1053 9.19692,-1.96173 10.39932,3.07962 -0.4005,1.47663 -1.16019,4.45077 -1.56096,5.94846 -2.99529,-0.1053 -5.99067,-0.2952 -8.98596,-0.5904 -0.018,-2.80548 0.018,-5.63202 0.1476,-8.4375 z"
       id="path3067" />
    <g
       id="g3885">
      <text
         sodipodi:linespacing="125%"
         id="text3566"
         y="-20.280943"
         x="206.88849"
         style="font-size:184px;font-style:normal;font-variant:normal;font-weight:bold;font-stretch:normal;line-height:125%;letter-spacing:0px;word-spacing:0px;fill:#ffffff;fill-opacity:1;stroke:none;font-family:Liberation Mono;-inkscape-font-specification:Liberation Mono Bold"
         xml:space="preserve"><tspan
           y="-20.280943"
           x="206.88849"
           id="tspan3568"
           sodipodi:role="line">E</tspan></text>
      <text
         sodipodi:linespacing="125%"
         id="text3570"
         y="-20.280943"
         x="310.90912"
         style="font-size:184px;font-style:normal;font-variant:normal;font-weight:bold;font-stretch:normal;line-height:125%;letter-spacing:0px;word-spacing:0px;fill:#ffffff;fill-opacity:1;stroke:none;font-family:Liberation Mono;-inkscape-font-specification:Liberation Mono Bold"
         xml:space="preserve"><tspan
           y="-20.280943"
           x="310.90912"
           id="tspan3572"
           sodipodi:role="line">L</tspan></text>
      <text
         sodipodi:linespacing="125%"
         id="text3574"
         y="-22.077818"
         x="422.79715"
         style="font-size:184px;font-style:normal;font-variant:normal;font-weight:bold;font-stretch:normal;line-height:125%;letter-spacing:0px;word-spacing:0px;fill:#ffffff;fill-opacity:1;stroke:none;font-family:Liberation Mono;-inkscape-font-specification:Liberation Mono Bold"
         xml:space="preserve"><tspan
           y="-22.077818"
           x="422.79715"
           id="tspan3576"
           sodipodi:role="line">S</tspan></text>
      <text
         sodipodi:linespacing="125%"
         id="text3578"
         y="-20.280943"
         x="538.59161"
         style="font-size:184px;font-style:normal;font-variant:normal;font-weight:bold;font-stretch:normal;line-height:125%;letter-spacing:0px;word-spacing:0px;fill:#ffffff;fill-opacity:1;stroke:none;font-family:Liberation Mono;-inkscape-font-specification:Liberation Mono Bold"
         xml:space="preserve"><tspan
           y="-20.280943"
           x="538.59161"
           id="tspan3580"
           sodipodi:role="line">A</tspan></text>
      <text
         sodipodi:linespacing="125%"
         id="text3582"
         y="111.83043"
         x="205.09161"
         style="font-size:184px;font-style:normal;font-variant:normal;font-weight:bold;font-stretch:normal;line-height:125%;letter-spacing:0px;word-spacing:0px;fill:#ffffff;fill-opacity:1;stroke:none;font-family:Liberation Mono;-inkscape-font-specification:Liberation Mono Bold"
         xml:space="preserve"><tspan
           y="111.83043"
           x="205.09161"
           id="tspan3584"
           sodipodi:role="line">B</tspan></text>
      <text
         sodipodi:linespacing="125%"
         id="text3586"
         y="110.03355"
         x="315.58099"
         style="font-size:184px;font-style:normal;font-variant:normal;font-weight:bold;font-stretch:normal;line-height:125%;letter-spacing:0px;word-spacing:0px;fill:#ffffff;fill-opacity:1;stroke:none;font-family:Liberation Mono;-inkscape-font-specification:Liberation Mono Bold"
         xml:space="preserve"><tspan
           y="110.03355"
           x="315.58099"
           id="tspan3588"
           sodipodi:role="line">O</tspan></text>
      <text
         sodipodi:linespacing="125%"
         id="text3590"
         y="111.83043"
         x="421.62918"
         style="font-size:184px;font-style:normal;font-variant:normal;font-weight:bold;font-stretch:normal;line-height:125%;letter-spacing:0px;word-spacing:0px;fill:#ffffff;fill-opacity:1;stroke:none;font-family:Liberation Mono;-inkscape-font-specification:Liberation Mono Bold"
         xml:space="preserve"><tspan
           y="111.83043"
           x="421.62918"
           id="tspan3592"
           sodipodi:role="line">H</tspan></text>
      <text
         sodipodi:linespacing="125%"
         id="text3594"
         y="111.83043"
         x="532.52716"
         style="font-size:184px;font-style:normal;font-variant:normal;font-weight:bold;font-stretch:normal;line-height:125%;letter-spacing:0px;word-spacing:0px;fill:#ffffff;fill-opacity:1;stroke:none;font-family:Liberation Mono;-inkscape-font-specification:Liberation Mono Bold"
         xml:space="preserve"><tspan
           y="111.83043"
           x="532.52716"
           id="tspan3596"
           sodipodi:role="line">R</tspan></text>
    </g>
  </g>
</svg>
