<?xml version="1.0" encoding="UTF-8" standalone="no"?>
<!-- Created with Inkscape (http://www.inkscape.org/) -->

<svg
   xmlns:dc="http://purl.org/dc/elements/1.1/"
   xmlns:cc="http://creativecommons.org/ns#"
   xmlns:rdf="http://www.w3.org/1999/02/22-rdf-syntax-ns#"
   xmlns:svg="http://www.w3.org/2000/svg"
   xmlns="http://www.w3.org/2000/svg"
   xmlns:sodipodi="http://sodipodi.sourceforge.net/DTD/sodipodi-0.dtd"
   xmlns:inkscape="http://www.inkscape.org/namespaces/inkscape"
   width="100"
   height="100"
   id="svg2985"
   version="1.1"
   inkscape:version="0.48.5 r10040"
   sodipodi:docname="ostrich sans elsa bohr.svg"
   inkscape:export-filename="C:\Documents and Settings\ftkaczyszyn\Escritorio\ostrich sans elsa bohr.png"
   inkscape:export-xdpi="194.78641"
   inkscape:export-ydpi="194.78641">
  <defs
     id="defs3" />
  <sodipodi:namedview
     id="base"
     pagecolor="#ffffff"
     bordercolor="#666666"
     borderopacity="1.0"
     inkscape:pageopacity="0.0"
     inkscape:pageshadow="2"
     inkscape:zoom="2.9125124"
     inkscape:cx="62.552909"
     inkscape:cy="50.387394"
     inkscape:document-units="mm"
     inkscape:current-layer="layer1"
     showgrid="false"
     units="px"
     inkscape:window-width="1152"
     inkscape:window-height="808"
     inkscape:window-x="-4"
     inkscape:window-y="-4"
     inkscape:window-maximized="1" />
  <metadata
     id="metadata2989">
    <rdf:RDF>
      <cc:Work
         rdf:about="">
        <dc:format>image/svg+xml</dc:format>
        <dc:type
           rdf:resource="http://purl.org/dc/dcmitype/StillImage" />
        <dc:title />
      </cc:Work>
    </rdf:RDF>
  </metadata>
  <g
     inkscape:label="Layer 1"
     inkscape:groupmode="layer"
     id="layer1"
     transform="translate(0,-77.164886)">
    <g
       id="g3031">
      <g
         id="g3019">
        <path
           inkscape:connector-curvature="0"
           id="path3024"
           style="font-size:42px;font-style:normal;font-weight:bold;line-height:137.99999952%;letter-spacing:1.37000012px;word-spacing:0px;fill:#000000;fill-opacity:1;stroke:none;font-family:Ostrich Sans Medium;-inkscape-font-specification:Ostrich Sans Medium"
           d="m 0.3543292,78.807992 0,45.979668 16.5090208,0 0,-2.11479 -14.3942292,0 0,-19.85176 12.3476562,0 0,-2.11479 -12.3476562,0 0,-19.783537 14.3942292,0 0,-2.114791 z" />
        <path
           inkscape:connector-curvature="0"
           id="path3026"
           style="font-size:42px;font-style:normal;font-weight:bold;line-height:137.99999952%;letter-spacing:1.37000012px;word-spacing:0px;fill:#000000;fill-opacity:1;stroke:none;font-family:Ostrich Sans Medium;-inkscape-font-specification:Ostrich Sans Medium"
           d="m 44.333422,122.67287 -14.053136,0 0,-43.864878 -2.183007,0 0,45.979668 16.236143,0 z" />
        <path
           inkscape:connector-curvature="0"
           id="path3028"
           style="font-size:42px;font-style:normal;font-weight:bold;line-height:137.99999952%;letter-spacing:1.37000012px;word-spacing:0px;fill:#000000;fill-opacity:1;stroke:none;font-family:Ostrich Sans Medium;-inkscape-font-specification:Ostrich Sans Medium"
           d="m 52.00821,112.57644 c 0,8.10671 3.27451,12.15437 9.823546,12.143 3.187806,-0.008 5.62948,-0.89537 7.325023,-2.66054 1.69551,-1.76517 2.551102,-4.35749 2.56676,-7.77698 -0.217313,-3.82068 -1.738342,-6.91243 -4.563104,-9.27527 -2.824794,-2.3628 -5.649572,-4.67635 -8.474334,-6.940661 -2.824778,-2.264256 -4.345807,-5.158931 -4.563104,-8.684038 0.01462,-2.949016 0.685042,-5.100758 2.012473,-6.455234 1.327414,-1.354389 3.226187,-2.022366 5.696286,-2.003934 2.589484,-0.01267 4.522351,0.797357 5.798633,2.430308 1.27625,1.633033 1.912953,4.165664 1.910127,7.5979 l 0,1.091505 2.183023,0 0,-1.091505 c -0.0065,-3.970881 -0.845652,-6.995258 -2.515579,-9.073139 -1.669976,-2.077797 -4.128705,-3.123822 -7.376204,-3.138079 -3.155141,0.02136 -5.576918,0.967904 -7.265329,2.839621 -1.688428,1.871803 -2.541162,4.540873 -2.558217,8.007216 0.216452,3.854829 1.731585,7.007222 4.545416,9.457185 2.813814,2.450015 5.627644,4.809045 8.441474,7.077095 2.813814,2.2681 4.328948,5.05665 4.545416,8.36569 -0.01462,2.99454 -0.685042,5.10649 -2.012457,6.33585 -1.327447,1.22937 -3.226204,1.82344 -5.696303,1.78222 -0.832852,0.0171 -1.69127,-0.0853 -2.575271,-0.30699 -0.884001,-0.22171 -1.708326,-0.66513 -2.472942,-1.33027 -0.767458,-0.66086 -1.398493,-1.65857 -1.893072,-2.99311 -0.494594,-1.33453 -0.750419,-3.1338 -0.767474,-5.39784 l 0,-1.02328 -2.114787,0 z" />
        <path
           inkscape:connector-curvature="0"
           id="path3030"
           style="font-size:42px;font-style:normal;font-weight:bold;line-height:137.99999952%;letter-spacing:1.37000012px;word-spacing:0px;fill:#000000;fill-opacity:1;stroke:none;font-family:Ostrich Sans Medium;-inkscape-font-specification:Ostrich Sans Medium"
           d="m 97.8817,124.78766 2.18301,0 -10.505733,-45.979668 -1.705483,0 -6.958356,29.811748 0,0.20465 -3.61561,15.96327 2.183023,0 3.13807,-14.05313 12.142993,0 z m -9.209582,-40.181045 5.593973,24.013125 -11.11971,0 z" />
      </g>
      <g
         id="g3025">
        <path
           inkscape:connector-curvature="0"
           id="path3032"
           style="font-size:40px;font-style:normal;font-weight:bold;line-height:79.00000215%;letter-spacing:0px;word-spacing:0px;fill:#000000;fill-opacity:1;stroke:none;font-family:Ostrich Sans Black;-inkscape-font-specification:Ostrich Sans Black"
           d="m 0.3543292,175.12204 0,-47.8833 9.2258208,0 c 4.093132,0.0109 7.081776,1.22366 8.965935,3.63835 0.940705,1.07476 1.641844,2.43373 2.103417,4.0769 0.461541,1.64326 0.691653,3.55447 0.690321,5.73366 0.0013,2.17383 -0.228764,4.07964 -0.690321,5.71741 -0.461573,1.63782 -1.162712,3.02386 -2.103417,4.15811 -0.07569,0.12991 -0.249003,0.3248 -0.519713,0.58467 0.270694,0.24908 0.443957,0.46565 0.519762,0.64971 0.940688,1.13433 1.641811,2.52038 2.103384,4.15817 0.461541,1.63783 0.691637,3.54363 0.690305,5.71742 0.0013,2.17924 -0.228764,4.09045 -0.690321,5.73364 -0.461573,1.64323 -1.162712,3.0022 -2.103417,4.07691 -1.949131,2.41474 -4.937773,3.62753 -8.965935,3.63835 z m 6.107234,-41.77607 0,14.74832 3.1185868,0 c 0.684888,-0.001 1.28045,-0.0473 1.786689,-0.13806 0.506218,-0.0907 0.906869,-0.2179 1.201957,-0.3817 0.295061,-0.15969 0.549529,-0.31129 0.763404,-0.4548 0.21385,-0.14346 0.370861,-0.29505 0.471036,-0.45479 0.45478,-0.54952 0.795875,-1.31833 1.023287,-2.30646 0.227382,-0.98806 0.341082,-2.21167 0.341096,-3.67083 -0.0041,-1.67296 -0.142141,-3.00486 -0.414188,-3.9957 -0.272079,-0.99076 -0.653781,-1.73792 -1.145106,-2.24148 -0.525191,-0.47235 -1.131583,-0.77825 -1.819177,-0.91771 -0.687615,-0.13938 -1.423947,-0.20164 -2.208998,-0.18679 z m 0,20.85555 0,14.81329 3.1185868,0 c 0.785051,0.0162 1.521385,-0.0487 2.208998,-0.19491 0.687593,-0.14619 1.293984,-0.47103 1.819177,-0.97456 0.491325,-0.47237 0.873027,-1.20059 1.145105,-2.18463 0.272048,-0.98402 0.410112,-2.31321 0.414189,-3.98757 -0.0068,-1.70682 -0.155671,-3.06849 -0.446673,-4.08503 -0.291028,-1.0165 -0.683558,-1.77719 -1.177591,-2.28209 -0.522485,-0.47237 -1.118047,-0.77827 -1.786692,-0.91771 -0.668666,-0.13939 -1.394171,-0.20165 -2.176513,-0.18679 z" />
        <path
           inkscape:connector-curvature="0"
           id="path3034"
           style="font-size:40px;font-style:normal;font-weight:bold;line-height:79.00000215%;letter-spacing:0px;word-spacing:0px;fill:#000000;fill-opacity:1;stroke:none;font-family:Ostrich Sans Black;-inkscape-font-specification:Ostrich Sans Black"
           d="m 24.845501,140.81759 c 0,-4.23388 0.909584,-7.52572 2.728767,-9.87553 0.353266,-0.42632 0.783701,-0.85675 1.29129,-1.29129 0.507573,-0.43444 1.11668,-0.84863 1.827288,-1.24256 0.709261,-0.36406 1.515978,-0.65914 2.420153,-0.88523 0.904174,-0.22599 1.938292,-0.3424 3.102352,-0.34921 2.321331,0.0474 4.175696,0.45619 5.563111,1.22632 1.387367,0.77022 2.413363,1.61754 3.077972,2.54197 1.81915,2.34981 2.72875,5.64165 2.728766,9.87553 l 0,20.59567 c -1.6e-5,4.23392 -0.909616,7.52576 -2.728766,9.87552 -0.664609,0.92448 -1.690605,1.7718 -3.077972,2.54197 -1.387415,0.77017 -3.24178,1.17896 -5.563111,1.22632 -2.292922,-0.0474 -4.139182,-0.45613 -5.538747,-1.22632 -1.399566,-0.77017 -2.433683,-1.61749 -3.102336,-2.54197 -1.819183,-2.34976 -2.728767,-5.6416 -2.728767,-9.87552 z m 6.107231,20.59567 c 0.01299,1.89363 0.198975,3.35276 0.560378,4.37739 0.361388,1.02465 0.824309,1.75285 1.388748,2.18463 0.560362,0.43856 1.128862,0.71467 1.705499,0.82836 0.576605,0.1137 1.112619,0.16243 1.608026,0.14618 0.438541,0.0163 0.958312,-0.0325 1.559298,-0.14618 0.600969,-0.1137 1.185695,-0.38982 1.754211,-0.82837 0.564391,-0.43177 1.027296,-1.15999 1.388716,-2.18462 0.36137,-1.02463 0.548163,-2.48376 0.560362,-4.37739 l 0,-20.59567 c -0.01299,-1.83674 -0.198992,-3.27963 -0.560379,-4.32867 -0.361403,-1.04896 -0.824324,-1.79342 -1.388747,-2.23336 -0.568484,-0.43586 -1.15321,-0.70119 -1.754163,-0.79599 -0.600986,-0.0947 -1.120757,-0.13262 -1.559298,-0.11372 -0.495407,-0.0189 -1.031421,0.019 -1.608026,0.1137 -0.576621,0.0948 -1.145121,0.36009 -1.705483,0.7959 -0.564455,0.43999 -1.027376,1.18448 -1.388764,2.23346 -0.361403,1.04905 -0.548196,2.49194 -0.560378,4.32867 z" />
        <path
           inkscape:connector-curvature="0"
           id="path3036"
           style="font-size:40px;font-style:normal;font-weight:bold;line-height:79.00000215%;letter-spacing:0px;word-spacing:0px;fill:#000000;fill-opacity:1;stroke:none;font-family:Ostrich Sans Black;-inkscape-font-specification:Ostrich Sans Black"
           d="m 66.446285,148.09429 0,-20.85555 6.172219,0 0,47.8833 -6.172219,0 0,-20.85555 -9.225809,0 0,20.85555 -6.107231,0 0,-47.8833 6.107231,0 0,20.85555 z" />
        <path
           inkscape:connector-curvature="0"
           id="path3038"
           style="font-size:40px;font-style:normal;font-weight:bold;line-height:79.00000215%;letter-spacing:0px;word-spacing:0px;fill:#000000;fill-opacity:1;stroke:none;font-family:Ostrich Sans Black;-inkscape-font-specification:Ostrich Sans Black"
           d="m 99.854695,175.05707 -6.172202,0 0,-14.16358 c 0.01137,-4.21224 -2.024915,-6.31295 -6.107231,-6.30214 l -3.833264,0 0,20.46572 -6.107231,0 0,-47.8833 9.940495,0 c 4.11615,0.0122 7.172469,1.17358 9.168976,3.48405 1.996473,2.31055 2.989967,5.69714 2.98053,10.15977 -0.01137,4.42886 -0.963753,7.78566 -2.858709,10.07043 -0.03525,0.0339 -0.07845,0.0799 -0.129943,0.13807 -0.05149,0.0582 -0.0947,0.12049 -0.129943,0.18679 -0.129942,0.14079 -0.259901,0.24908 -0.389828,0.32485 1.174878,1.13701 2.073627,2.48515 2.696281,4.04442 0.622621,1.55931 0.936644,3.32976 0.942069,5.31134 z m -16.112697,-26.63793 3.833264,0 c 1.635087,3e-5 2.782904,-0.19488 3.443436,-0.58473 0.584726,-0.40062 0.974554,-0.70382 1.169485,-0.90959 0.963705,-1.22358 1.440156,-3.25933 1.429338,-6.10723 -0.0014,-1.58092 -0.128643,-2.8695 -0.38169,-3.86575 -0.253129,-0.99618 -0.624002,-1.765 -1.112619,-2.30646 -0.51844,-0.50889 -1.154607,-0.8554 -1.908519,-1.03953 -0.753945,-0.18404 -1.633755,-0.27067 -2.639431,-0.25988 l -3.833264,0 z" />
      </g>
    </g>
  </g>
</svg>
